<svg height="511pt" viewBox="1 0 512 511" width="511pt" xmlns="http://www.w3.org/2000/svg"><path d="M512 44.457v275.844c0 24.523-19.895 44.418-44.43 44.418H44.418C19.883 364.719 0 344.824 0 320.3V44.457C0 20.187 19.676.5 43.95.5h424.093C492.313.5 512 20.188 512 44.457zm0 0" fill="#c4e2f2"/><path d="M359.266 423.988l-103.27 23.532-103.277-23.532 14.148-59.265 84.742-31.16 93.508 31.16 4.578 19.183zm0 0" fill="#2d303b"/><path d="M512 315.066v5.223c0 24.535-19.895 44.43-44.43 44.43H44.418C19.883 364.719 0 344.824 0 320.289v-5.223zM359.266 423.988H201.309l9.57-40.082h138.816zm0 0" fill="#3c3f4d"/><path d="M420.129 456.984v14.075H91.867v-14.075c0-18.222 14.774-32.996 32.996-32.996h262.27c18.222 0 32.996 14.774 32.996 32.996zm0 0" fill="#2d303b"/><path d="M457.258 364.719H225.406l11.356-109.336h209.136zm0 0" fill="#83b2c6"/><path d="M239.375 132.207l-2.738 20.895-8.766 66.761c-1.578 12.024-11.816 21.012-23.95 21.012H99.286c-12.129 0-22.37-8.988-23.95-21.012l-11.503-87.656 87.773-23.512zm0 0" fill="#1f81a3"/><path d="M236.637 153.102l-8.766 66.761c-1.578 12.024-11.816 21.012-23.95 21.012h-71.198c-12.133 0-22.371-8.988-23.95-21.012l-5.941-45.246c-1.496-11.398 7.379-21.515 18.875-21.515zm0 0" fill="#2c92bf"/><path d="M251.39 108.57v12.79c0 5.988-4.855 10.847-10.843 10.847H62.664c-5.988 0-10.848-4.86-10.848-10.848V108.57c0-5.988 4.86-10.847 10.848-10.847h177.883c5.988 0 10.844 4.859 10.844 10.847zm0 0" fill="#1f81a3"/><path d="M251.39 108.57v12.79c0 5.988-4.855 10.847-10.843 10.847h-136.09c-5.984 0-10.844-4.86-10.844-10.848V108.57c0-5.988 4.86-10.847 10.844-10.847h136.09c5.988 0 10.844 4.859 10.844 10.847zm0 0" fill="#2c92bf"/><path d="M151.605 48.613c-9.812 0-17.765 7.953-17.765 17.762v84.637c0 9.812 7.953 17.765 17.765 17.765 9.81 0 17.762-7.953 17.762-17.765V66.375c0-9.809-7.953-17.762-17.762-17.762zm0 0" fill="#3c3f4d"/><path d="M456.215 364.719H224.359l5.153-49.653h221.55zm0 0" fill="#2d303b"/><path d="M459.48 255.379H250.348l-26.645 256.434h262.422zm0 0" fill="#ff491f"/><path d="M336.797 338.293H191.426l-18.52 173.52H355.32zm0 0" fill="#ffe14d"/><path d="M411.336 288.293a7.836 7.836 0 01-7.84-7.836v-51.715c0-26.793-21.793-48.586-48.582-48.586-26.793 0-48.586 21.797-48.586 48.586v51.715a7.835 7.835 0 01-7.836 7.836 7.835 7.835 0 01-7.836-7.836v-51.715c0-35.433 28.824-64.258 64.258-64.258 35.43 0 64.258 28.825 64.258 64.258v51.715a7.835 7.835 0 01-7.836 7.836zm0 0" fill="#fff"/><path d="M264.113 445.164c-22.902 0-41.535-18.633-41.535-41.535v-33.695a7.839 7.839 0 0115.676 0v33.695c0 14.258 11.601 25.86 25.86 25.86 14.261 0 25.859-11.598 25.859-25.86v-33.695c0-4.329 3.507-7.836 7.836-7.836s7.836 3.507 7.836 7.836v33.695c0 22.902-18.63 41.535-41.532 41.535zm0 0" fill="#3c3f4d"/><path d="M330.078 87.945h-33.437c-4.329 0-7.836-3.507-7.836-7.836s3.507-7.836 7.836-7.836h33.437c4.328 0 7.836 3.508 7.836 7.836s-3.508 7.836-7.836 7.836zm0 0" fill="#ff491f"/><path d="M473.227 87.945H364.559c-4.329 0-7.836-3.507-7.836-7.836s3.507-7.836 7.836-7.836h108.668a7.836 7.836 0 110 15.672zm0 0" fill="#3c3f4d"/><path d="M330.078 124.52h-33.437a7.839 7.839 0 010-15.676h33.437a7.839 7.839 0 010 15.676zm0 0" fill="#ff491f"/><path d="M473.227 124.52H364.559a7.839 7.839 0 010-15.676h108.668a7.836 7.836 0 017.84 7.836 7.842 7.842 0 01-7.84 7.84zm0 0" fill="#3c3f4d"/></svg>